<svg width="24" height="24" viewBox="0 0 24 24" fill="none" xmlns="http://www.w3.org/2000/svg">
  <path d="M 7.5 6.5 H 16.5 C 17.3 6.5 18 7.2 18 8 V 19 C 18 19.6 17.6 20 17 20 H 7 C 6.4 20 6 19.6 6 19 V 8 C 6 7.2 6.7 6.5 7.5 6.5 Z" stroke="currentColor" stroke-width="1.75" stroke-linecap="round" stroke-linejoin="round"/>
  <path d="M 12 11.3 A 2.2 2.2 0 1 0 12 6.9 A 2.2 2.2 0 1 0 12 11.3" stroke="currentColor" stroke-width="1.75" stroke-linecap="round" stroke-linejoin="round"/>
  <path d="M 8.6 17 C 9.4 14.7 10.7 13.6 12 13.6 C 13.3 13.6 14.6 14.7 15.4 17" stroke="currentColor" stroke-width="1.75" stroke-linecap="round" stroke-linejoin="round"/>
  <path d="M 17.2 7.9 L 18.099999999999998 8.8 L 17.2 9.700000000000001 L 16.3 8.8 Z" stroke="currentColor" stroke-width="1.75" stroke-linecap="round" stroke-linejoin="round"/>
</svg>
