<svg width="24" height="24" viewBox="0 0 24 24" fill="none" xmlns="http://www.w3.org/2000/svg">
  <path d="M 12 10.2 C 8.8 10.2 6.5 12 5.2 14.2 C 6.5 16.4 8.8 18.2 12 18.2 C 15.2 18.2 17.5 16.4 18.8 14.2 C 17.5 12 15.2 10.2 12 10.2 Z" stroke="currentColor" stroke-width="1.75" stroke-linecap="round" stroke-linejoin="round"/>
  <path d="M 13.6 14.2 A 1.6 1.6 0 1 0 10.4 14.2 A 1.6 1.6 0 1 0 13.6 14.2" stroke="currentColor" stroke-width="1.75" stroke-linecap="round" stroke-linejoin="round"/>
  <path d="M 14.4 6.8 A 2.4 2.4 0 1 0 9.6 6.8 A 2.4 2.4 0 1 0 14.4 6.8" stroke="currentColor" stroke-width="1.75" stroke-linecap="round" stroke-linejoin="round"/>
  <path d="M 12 5.8 L 13.0 6.8 L 12 7.8 L 11.0 6.8 Z" stroke="currentColor" stroke-width="1.75" stroke-linecap="round" stroke-linejoin="round"/>
  <path d="M 12 9.2 L 12 10.2" stroke="currentColor" stroke-width="1.75" stroke-linecap="round" stroke-linejoin="round"/>
</svg>
