<svg width="24" height="24" viewBox="0 0 24 24" fill="none" xmlns="http://www.w3.org/2000/svg">
  <path d="M 6.5 7 H 9.2 C 9.7 7 10.1 7.4 10.1 7.9 V 18.1 C 10.1 18.6 9.7 19 9.2 19 H 6.5 Z" stroke="currentColor" stroke-width="1.75" stroke-linecap="round" stroke-linejoin="round"/>
  <path d="M 10.8 7 H 13.5 C 14 7 14.4 7.4 14.4 7.9 V 18.1 C 14.4 18.6 14 19 13.5 19 H 10.8 Z" stroke="currentColor" stroke-width="1.75" stroke-linecap="round" stroke-linejoin="round"/>
  <path d="M 15.1 7 H 17.5 C 18 7 18.4 7.4 18.4 7.9 V 18.1 C 18.4 18.6 18 19 17.5 19 H 15.1 Z" stroke="currentColor" stroke-width="1.75" stroke-linecap="round" stroke-linejoin="round"/>
  <path d="M 12 4.1 L 13.2 5.3 L 12 6.5 L 10.8 5.3 Z" stroke="currentColor" stroke-width="1.75" stroke-linecap="round" stroke-linejoin="round"/>
</svg>
